<svg xmlns="http://www.w3.org/2000/svg" width="104.284" height="56.967" viewBox="0 0 104.284 56.967">
  <g id="icon-caballos-contorno" transform="translate(82.12 -11.067)">
    <path id="Trazado_677" data-name="Trazado 677" d="M13.86,22.66s.21,0,.13.4l.56-.43-.53-.43-.17.47Z" transform="translate(7.614 9.569)"/>
    <path id="Trazado_678" data-name="Trazado 678" d="M87.781,29.117l-.037-.349-.734-1.744c-.129-.367-.257-.716-.385-1.065a39.035,39.035,0,0,0-2.9-6.866l.918.184-.2-1.3a2.946,2.946,0,0,0-1.928-2.295l.184-2.038c.018-.808-.22-1.3-.771-1.487a1.03,1.03,0,0,0-.844.092,1.2,1.2,0,0,0-.587-1.046,1.079,1.079,0,0,0-1.1.037l-.2.165A14.489,14.489,0,0,0,77.575,13.5a1.229,1.229,0,0,1-.385.037h-.551a16.107,16.107,0,0,0-3.855.33c-3.616.881-6.829,2.992-10.115,6.682a8.989,8.989,0,0,1-3.1,2.24,48.024,48.024,0,0,1-17.678,3.837c-1.744.073-3.525.055-5.269.037-1.4,0-2.809-.018-4.2,0a13.765,13.765,0,0,0-7.875,2.295,1.078,1.078,0,0,1-.349.037c-.459.018-.936.018-1.4.037a19.107,19.107,0,0,0-2.7.129C11.782,30.219,6.165,36.479,5.082,45.877l-.2,1.689,1.8-.9a6.706,6.706,0,0,0,.624-.33,45.728,45.728,0,0,0,8.187-6.095,13.249,13.249,0,0,0,3.231-4.3,8.369,8.369,0,0,1,.9-1.505,3.824,3.824,0,0,1,.863-.863c-1.3,4.571-1.1,5.783,1.083,11.492-.294.165-.569.33-.863.5-1.175.661-2.386,1.358-3.6,1.909a4.283,4.283,0,0,0-2.643,3.69l-.11.863c-.165,1.4-.33,2.79-.551,4.185a10.446,10.446,0,0,1-1.542,4.5,2.059,2.059,0,0,0-2.552,1.6,36.867,36.867,0,0,0-.753,3.653,2.069,2.069,0,0,0,.808,1.817,1.52,1.52,0,0,0,.9.257,1.868,1.868,0,0,0,1.1-.33l.532-.4a18.932,18.932,0,0,0,2.717-2.295,10.8,10.8,0,0,0,2.5-6.3c.33-2.754,1.34-4.608,3.176-5.8a8.379,8.379,0,0,1,1.579-.734c.422-.165.863-.349,1.267-.551.955-.477,1.909-.991,2.845-1.487l1.689-.9a.261.261,0,0,0,.073-.037,17.859,17.859,0,0,1-.936,3.139c-1.028,2.46-.459,4.241,1.781,5.6,1.193.734,2.368,1.505,3.525,2.276,1.1.753,2.2,1.524,3.3,2.276l1.046.734a3.309,3.309,0,0,0-.147.386,1.831,1.831,0,0,0,.973,2.423c.844.367,1.707.7,2.588,1.046l2.148.844.165-1.138a6.649,6.649,0,0,0-2.607-6.572c-2.2-1.762-4.406-3.525-6.645-5.25A.665.665,0,0,1,33,54.23a14.659,14.659,0,0,1,1.487-4.9c.275-.643.551-1.267.789-1.928a3.662,3.662,0,0,1,.459-.7c.734-.973,1.23-1.065,2.35-.477a23.484,23.484,0,0,0,3.286,1.469A27.821,27.821,0,0,0,53.068,48.76c1.12-.092,2.221-.257,3.359-.422l.753-.11a2.219,2.219,0,0,1,.092.33A10.8,10.8,0,0,1,52.9,59.994a11.623,11.623,0,0,1-2.019,1.065l-.073.037a1.858,1.858,0,0,0-2.46-.294A7.956,7.956,0,0,0,45.5,64.455a1.477,1.477,0,0,0,.129,1.56,1.619,1.619,0,0,0,1.6.532,10.045,10.045,0,0,0,1.671-.441c.33-.11.661-.257.991-.385a6.138,6.138,0,0,1,1.487-.5,8.418,8.418,0,0,0,5.434-3.121c.385-.422.753-.881,1.1-1.34.4-.514.808-1.01,1.248-1.487a15.229,15.229,0,0,0,4.149-7.912c.092-.551.2-.661.2-.661a1.393,1.393,0,0,1,.587,0,21.1,21.1,0,0,1,4.259.955,6.1,6.1,0,0,1,2.24,1.505,10.475,10.475,0,0,1,2.331,4.846c.257.955.5,1.928.753,2.919l.184.716a2.21,2.21,0,0,0-.936,1.524,3.116,3.116,0,0,0,1.358,2.386l1.781,1.579a1.784,1.784,0,0,0,1.634.459,1.558,1.558,0,0,0,1.065-1.12,5.048,5.048,0,0,0,.184-2.368l-.055-.294c-.422-2.295-.863-4.644-1.487-6.939-.808-3.011-2.4-7.343-6.755-9.986a4.842,4.842,0,0,1-2.35-3.433,21.742,21.742,0,0,1-.165-2.258c0-.587-.037-1.175-.092-1.762a4.925,4.925,0,0,1,1.524-4.13A36.508,36.508,0,0,0,72.692,31.8c.7-.918,1.322-1.891,1.909-2.845.33-.532.679-1.065,1.028-1.6.239-.349.5-.569.7-.587.239-.055.532.22.679.367a10.1,10.1,0,0,1,1.322,1.744l.422.643c.22.33.441.661.643,1.01a20.726,20.726,0,0,0,1.175,1.744,3.3,3.3,0,0,0,3.4,1.12,4.668,4.668,0,0,0,3.727-3.378,3.507,3.507,0,0,0,.073-.955h0Zm-2.148,1.12A2.814,2.814,0,0,1,83.6,31.651a1.392,1.392,0,0,1-1.579-.459,17.789,17.789,0,0,1-1.046-1.56c-.22-.367-.441-.716-.679-1.065l-.4-.606a12.649,12.649,0,0,0-1.56-2.056,2.615,2.615,0,0,0-2.148-.881,2.86,2.86,0,0,0-2.038,1.4c-.367.532-.716,1.083-1.065,1.634-.587.918-1.175,1.854-1.836,2.717a37.244,37.244,0,0,1-2.956,3.341,6.688,6.688,0,0,0-2.038,5.581c.055.551.073,1.1.073,1.652a16.671,16.671,0,0,0,.184,2.5,6.764,6.764,0,0,0,3.213,4.7c2.937,1.781,4.773,4.516,5.948,8.885.606,2.221,1.028,4.553,1.45,6.811l.055.294a3.154,3.154,0,0,1-.055,1.157l-1.6-1.414a3.5,3.5,0,0,1-.753-.826c0-.018.11-.2.642-.532l.569-.349-.5-1.983c-.257-.991-.5-1.983-.753-2.956a12.059,12.059,0,0,0-2.809-5.672A8.381,8.381,0,0,0,69,50.008a23.464,23.464,0,0,0-4.626-1.046c-1.652-.22-2.533.441-2.845,2.148a13.186,13.186,0,0,1-3.653,6.957c-.5.514-.936,1.065-1.377,1.615-.33.422-.661.844-1.028,1.248A6.547,6.547,0,0,1,51.2,63.464a6.808,6.808,0,0,0-2.019.624c-.275.129-.569.239-.844.349a8.1,8.1,0,0,1-.863.257A5.411,5.411,0,0,1,49.36,62.4l.2.073a1.638,1.638,0,0,0,1.781.459l.312-.147a12.444,12.444,0,0,0,2.331-1.248A12.644,12.644,0,0,0,59.07,48.154a7.263,7.263,0,0,0-.275-.826l-.367-1.065-2.258.312c-1.1.165-2.166.312-3.249.4a25.755,25.755,0,0,1-10.941-.973,23.851,23.851,0,0,1-3.029-1.358,3.3,3.3,0,0,0-4.7,1.046,4.313,4.313,0,0,0-.679,1.1c-.239.624-.5,1.23-.753,1.836a16.855,16.855,0,0,0-1.634,5.507,2.471,2.471,0,0,0,1.046,2.313c2.24,1.707,4.424,3.47,6.627,5.232a4.732,4.732,0,0,1,2,3.69,16.712,16.712,0,0,1-2.4-1.1c.073-.2.165-.385.239-.606l.275-1.065-.514-.441c-.11-.092-.22-.184-.349-.275l-1.23-.863c-1.1-.771-2.2-1.542-3.323-2.295-1.193-.808-2.386-1.6-3.616-2.331-1.45-.881-1.707-1.707-1.028-3.323a21.628,21.628,0,0,0,1.083-3.69,2.038,2.038,0,0,0-.367-1.45,1.611,1.611,0,0,0-1.414-.679l-.349.092a3.983,3.983,0,0,0-.643.275l-1.707.9c-.936.5-1.872.991-2.809,1.469a12.063,12.063,0,0,1-1.12.477,11.111,11.111,0,0,0-1.891.9c-2.295,1.487-3.616,3.818-4,7.123a9.2,9.2,0,0,1-2,5.269,17.438,17.438,0,0,1-2.478,2.074l-.422.275a30.575,30.575,0,0,1,.7-3.323,2.04,2.04,0,0,1,.073-.239,1.523,1.523,0,0,1,.477,0,1.954,1.954,0,0,0,1.671-.7,12.013,12.013,0,0,0,1.909-5.324c.239-1.414.4-2.845.569-4.259l.11-.863a2.5,2.5,0,0,1,1.579-2.24c1.3-.587,2.552-1.3,3.763-1.983.312-.184.624-.349.955-.532h0a1.824,1.824,0,0,0,.808-1.34,1.8,1.8,0,0,0-.128-.973.389.389,0,0,0-.055-.129v-.018h0c-2.166-5.654-2.111-6.186-.5-11.62l.33-1.1L21.9,31.394a4.283,4.283,0,0,0-3.69,1.946,9.191,9.191,0,0,0-1.12,1.872A12.031,12.031,0,0,1,14.3,38.92a45.74,45.74,0,0,1-7.1,5.4c1.432-7.508,6.26-12.428,13.144-13.309a18.253,18.253,0,0,1,2.478-.11c.477,0,.973,0,1.45-.037a2.247,2.247,0,0,0,1.3-.367,11.545,11.545,0,0,1,6.866-1.964c1.377-.037,2.754-.018,4.149,0,1.762,0,3.561.037,5.36-.055a49.392,49.392,0,0,0,18.357-4,10.646,10.646,0,0,0,3.727-2.7c3.029-3.4,5.948-5.342,9.179-6.113a15.048,15.048,0,0,1,3.433-.275h.569a2.06,2.06,0,0,0,1.946-.936l-.037.661v.073a1.1,1.1,0,0,0,.679.936l.7.128.165-.165a1.44,1.44,0,0,0,.863,1.193c.129.055.239.11.349.147a1.069,1.069,0,0,0-.2.275,1.722,1.722,0,0,0,.037,1.634,31.67,31.67,0,0,1,3.176,7.233c.239.7.5,1.414.753,2.111h0a2.227,2.227,0,0,1,0,1.579Z" transform="translate(-87 0)" fill="#fff"/>
  </g>
</svg>
