<svg xmlns="http://www.w3.org/2000/svg" width="34.276" height="23.887" viewBox="0 0 34.276 23.887">
  <g id="cashier" transform="translate(-515.163 -909.506)">
    <g id="icon-cashier-01" transform="translate(506.962 895.507)">
      <path id="Unión_9" data-name="Unión 9" d="M2096.994-1438.976a15.41,15.41,0,0,1-1.953-.444,9.028,9.028,0,0,1-1.865-.8,11.512,11.512,0,0,1-2.043-1.6h-13.941a1.176,1.176,0,0,1-1.154-1.155v-3.641a1.175,1.175,0,0,1,1.154-1.154h10.745c-.089-.355-.089-.8-.178-1.155h-10.567a1.176,1.176,0,0,1-1.154-1.155v-3.818a1.176,1.176,0,0,1,1.154-1.155h11.278a6.136,6.136,0,0,1,.444-1.154h-11.722a1.176,1.176,0,0,1-1.154-1.155V-1461a1.176,1.176,0,0,1,1.154-1.155h18.47a14.042,14.042,0,0,1,2.043-.355h2.219a8.93,8.93,0,0,1,3.463.711,10.3,10.3,0,0,1,3.463,2.308,12.518,12.518,0,0,1,2.4,3.552,12.084,12.084,0,0,1,1.066,4.441v.71a13.7,13.7,0,0,1-.533,3.818,12.429,12.429,0,0,1-1.954,3.908,12.12,12.12,0,0,1-3.108,2.93,10.246,10.246,0,0,1-4,1.42,5.049,5.049,0,0,1-1.155.089A8.213,8.213,0,0,1,2096.994-1438.976Zm-1.154-21.222a9.334,9.334,0,0,0-3.019,2.575,10.7,10.7,0,0,0-1.954,3.73,12.475,12.475,0,0,0-.532,3.641v.8a11.165,11.165,0,0,0,1.065,4.262,8.8,8.8,0,0,0,2.309,3.285,9.115,9.115,0,0,0,3.2,1.954,8.811,8.811,0,0,0,2.663.444c.355,0,.711-.088,1.067-.088a8.666,8.666,0,0,0,3.551-1.332,11.547,11.547,0,0,0,2.841-2.664,10.69,10.69,0,0,0,1.776-3.64,14.106,14.106,0,0,0,.622-3.463v-.711a12.522,12.522,0,0,0-.977-4.084,11.194,11.194,0,0,0-2.131-3.2,9.007,9.007,0,0,0-3.108-2.042,7.474,7.474,0,0,0-3.108-.622h-.621A9.187,9.187,0,0,0,2095.84-1460.2Zm-6.038,17.492h.444c-.089-.177-.266-.355-.444-.621Zm-2.753,0h2.308v-1.6a7.052,7.052,0,0,1-.71-1.42,3.2,3.2,0,0,1-.355-.977h-1.243Zm-2.664,0h2.22v-4h-2.22Zm-2.753,0h2.22v-4h-2.22Zm-2.663,0h2.219v-4h-2.219Zm-1.954-3.818v3.641a.191.191,0,0,0,.177.177h1.244v-4h-1.244A.191.191,0,0,0,2077.015-1446.523Zm14.118-11.1a12.861,12.861,0,0,0-1.865,3.641,11.471,11.471,0,0,0-.532,3.552v.8a11.486,11.486,0,0,0,.8,3.641,11.151,11.151,0,0,0,.857,1.644q-.078-.155-.147-.312a13.089,13.089,0,0,1-1.155-4.618v-.887a14.37,14.37,0,0,1,.622-3.908,14.846,14.846,0,0,1,2.131-4.084,15.159,15.159,0,0,1,1.066-1.243A8.419,8.419,0,0,0,2091.133-1457.623Zm-4.084,7.726h.622v-.533a15.422,15.422,0,0,1,.444-3.463h-1.065Zm-2.664,0h2.22v-4h-2.22Zm-2.753,0h2.22v-4h-2.22Zm-2.663,0h2.219v-4h-2.219Zm-1.954-3.819v3.641a.192.192,0,0,0,.177.178h1.244v-4h-1.244A.191.191,0,0,0,2077.015-1453.716Zm10.034-3.374h2.219v-4h-2.219Zm-2.664,0h2.22v-4h-2.22Zm-2.753,0h2.22v-4h-2.22Zm-2.663,0h2.219v-4h-2.219Zm-1.954-3.819v3.641a.191.191,0,0,0,.177.177h1.244v-4h-1.244A.191.191,0,0,0,2077.015-1460.909Zm12.787,3.375.533-.8a12.265,12.265,0,0,1,3.019-2.664H2089.8Zm7.192,16.96a8.991,8.991,0,0,1-3.019-1.865,11.019,11.019,0,0,1-2.22-3.108,12.006,12.006,0,0,1-.977-4v-.71a10.724,10.724,0,0,1,.533-3.374,9.868,9.868,0,0,1,1.776-3.463,9.43,9.43,0,0,1,2.841-2.487,8.284,8.284,0,0,1,3.552-1.066h.533a8.176,8.176,0,0,1,2.93.533,8.926,8.926,0,0,1,2.93,1.954,10.629,10.629,0,0,1,2.042,3.019,10.461,10.461,0,0,1,.8,3.819v.71a13.38,13.38,0,0,1-.444,3.286,10.955,10.955,0,0,1-1.687,3.374,10.119,10.119,0,0,1-2.664,2.487,8.566,8.566,0,0,1-3.374,1.243,3.671,3.671,0,0,1-.978.088A8.253,8.253,0,0,1,2096.994-1440.574Zm-.887-18.736a8.2,8.2,0,0,0-2.664,2.309,9.578,9.578,0,0,0-1.687,3.285,12.084,12.084,0,0,0-.444,3.2v.71a10.53,10.53,0,0,0,.977,3.819,7.61,7.61,0,0,0,2.042,2.93,7.333,7.333,0,0,0,2.842,1.776,7.176,7.176,0,0,0,2.4.444c.355,0,.622-.088.978-.088a8.161,8.161,0,0,0,3.2-1.155,7.669,7.669,0,0,0,2.486-2.309,9.816,9.816,0,0,0,1.6-3.2,11.946,11.946,0,0,0,.445-3.108v-.622a11.543,11.543,0,0,0-.888-3.641,9.937,9.937,0,0,0-1.954-2.93,8.384,8.384,0,0,0-2.752-1.865,6.913,6.913,0,0,0-2.753-.533h-.533A8.314,8.314,0,0,0,2096.106-1459.31Zm4,15.1v-2.042h-.977v2.042h-1.243v-2.131H2095.4l.355-1.42h.888a.415.415,0,0,0,.444-.445v-3.285h0v-2.4c0-.266-.177-.533-.71-.533h-.888v-1.332h2.575v-2.042h1.244v2.042h.976v-2.042h1.243v2.042c1.6.177,2.841.621,3.02,2.131a2.016,2.016,0,0,1-1.065,2.131,2,2,0,0,1,1.687,2.575c-.266,2.042-1.687,2.575-3.818,2.664v2.042Zm-.888-6.3v2.753c.888,0,3.551.177,3.551-1.332,0-1.283-1.538-1.436-2.667-1.436C2099.743-1450.535,2099.427-1450.519,2099.214-1450.519Zm0-3.819v2.487c.71,0,2.93.177,2.93-1.243,0-1.137-1.422-1.251-2.354-1.251C2099.558-1454.345,2099.356-1454.338,2099.214-1454.338Z" transform="translate(-2067.838 1476.507)" fill="#2d2d2d"/>
    </g>
  </g>
</svg>
