<svg xmlns="http://www.w3.org/2000/svg" width="27.848" height="27.848" viewBox="0 0 27.848 27.848">
  <path id="gift-solid" d="M9.989,3.608l1.825,3.1H7.97a2.1,2.1,0,1,1,0-4.195h.115A2.2,2.2,0,0,1,9.989,3.608ZM3.356,4.614a4.619,4.619,0,0,0,.5,2.1H1.678A1.676,1.676,0,0,0,0,8.39v3.356a1.676,1.676,0,0,0,1.678,1.678H25.17a1.676,1.676,0,0,0,1.678-1.678V8.39A1.676,1.676,0,0,0,25.17,6.712H22.988A4.616,4.616,0,0,0,18.877,0h-.115a4.732,4.732,0,0,0-4.074,2.328L13.424,4.483,12.16,2.333A4.726,4.726,0,0,0,8.086,0H7.97A4.615,4.615,0,0,0,3.356,4.614Zm17.619,0a2.1,2.1,0,0,1-2.1,2.1H15.034l1.825-3.1a2.21,2.21,0,0,1,1.9-1.091h.115A2.1,2.1,0,0,1,20.975,4.614ZM1.678,15.1v9.229a2.518,2.518,0,0,0,2.517,2.517h7.551V15.1ZM15.1,26.848h7.551a2.518,2.518,0,0,0,2.517-2.517V15.1H15.1Z" transform="translate(0.5 0.5)" fill="none" stroke="#2d2d2d" stroke-width="1"/>
</svg>
