<svg xmlns="http://www.w3.org/2000/svg" width="30.244" height="26.589" viewBox="0 0 30.244 26.589">
  <path id="right-to-bracket-solid" d="M20.105,35.655h3.655a1.826,1.826,0,0,1,1.828,1.828V52.105a1.826,1.826,0,0,1-1.828,1.828H20.105a1.828,1.828,0,1,0,0,3.655h3.655a5.485,5.485,0,0,0,5.483-5.483V37.483A5.485,5.485,0,0,0,23.761,32H20.105a1.828,1.828,0,0,0,0,3.655Zm-.428,10.133a1.367,1.367,0,0,0,0-1.988l-8.225-7.768a1.371,1.371,0,0,0-2.313.994v4.112H1.828A1.826,1.826,0,0,0,0,42.966v3.655A1.826,1.826,0,0,0,1.828,48.45H9.139v4.112a1.371,1.371,0,0,0,2.313.994Z" transform="translate(0.5 -31.5)" fill="none" stroke="#2d2d2d" stroke-width="1"/>
</svg>
