<svg xmlns="http://www.w3.org/2000/svg" width="28" height="28" viewBox="0 0 28 28">
  <g id="Chat" transform="translate(-745.5 -907.5)">
    <path id="headset-solid" d="M13.5,2.531A10.967,10.967,0,0,0,2.531,13.5v2.109a1.266,1.266,0,1,1-2.531,0V13.5a13.5,13.5,0,1,1,27,0v7.6a4.642,4.642,0,0,1-4.646,4.641l-5.817-.005A2.535,2.535,0,0,1,14.344,27H12.656a2.531,2.531,0,0,1,0-5.062h1.688A2.535,2.535,0,0,1,16.538,23.2l5.822.005A2.109,2.109,0,0,0,24.469,21.1V13.5A10.967,10.967,0,0,0,13.5,2.531ZM7.594,10.969h.844a1.686,1.686,0,0,1,1.687,1.688v5.906A1.686,1.686,0,0,1,8.437,20.25H7.594a3.378,3.378,0,0,1-3.375-3.375V14.344A3.378,3.378,0,0,1,7.594,10.969Zm11.812,0a3.378,3.378,0,0,1,3.375,3.375v2.531a3.378,3.378,0,0,1-3.375,3.375h-.844a1.686,1.686,0,0,1-1.687-1.687V12.656a1.686,1.686,0,0,1,1.688-1.687Z" transform="translate(746 908)" fill="none" stroke="#2d2d2d" stroke-width="1"/>
  </g>
</svg>
