<svg xmlns="http://www.w3.org/2000/svg" width="54.336" height="44.393" viewBox="0 0 54.336 44.393">
  <path id="icon-registrate" d="M34.825,20.418a10.6,10.6,0,1,1-10.6-10.6A10.6,10.6,0,0,1,34.825,20.418ZM5.68,49.755a14.769,14.769,0,0,1,14.77-14.77h7.565a14.769,14.769,0,0,1,14.77,14.77,2.461,2.461,0,0,1-2.458,2.458H8.138A2.461,2.461,0,0,1,5.68,49.755ZM57.436,24.471l-10.6,10.6a1.975,1.975,0,0,1-2.805,0l-5.3-5.3a1.984,1.984,0,0,1,2.805-2.805l3.9,3.9,9.2-9.2a1.984,1.984,0,1,1,2.805,2.805h0Z" transform="translate(-4.68 -8.82)" fill="none" stroke="#e5e5e5" stroke-width="2"/>
</svg>
