<svg xmlns="http://www.w3.org/2000/svg" width="54.214" height="54.201" viewBox="0 0 54.214 54.201">
  <path id="icon-apuestas-deportivas" d="M32.01,5.4a26.966,26.966,0,1,0,0-.012Zm1.41,10.055a1.436,1.436,0,0,1,.527-1.018c2.342-1.754,4.721-3.458,7.088-5.175a5.765,5.765,0,0,1,.6-.319c.258.1.454.172.65.258a24.364,24.364,0,0,1,9.381,6.867,1.651,1.651,0,0,1,.233,1.3q-1.232,4.047-2.612,8.032a1.879,1.879,0,0,1-1.018.993c-1.778.662-3.593,1.251-5.42,1.778a1.783,1.783,0,0,1-1.324-.208Q37.718,25.3,34,22.5a1.618,1.618,0,0,1-.564-1.1c-.061-1.974-.049-3.948,0-5.923Zm-20.049.576A24.769,24.769,0,0,1,22.653,9.2a1.337,1.337,0,0,1,1.533.2q3.311,2.465,6.671,4.844a1.627,1.627,0,0,1,.662.834V20.1a5.412,5.412,0,0,1-1.2,2.98A10.552,10.552,0,0,1,28.7,24.25c-1.8,1.079-3.421,2.477-5.162,3.679a1.8,1.8,0,0,1-1.312.27q-2.833-.828-5.616-1.839a1.618,1.618,0,0,1-.858-.9q-1.4-4.047-2.649-8.13a1.608,1.608,0,0,1,.27-1.288Zm7.2,30.214c-1.41.086-2.82.037-4.231.037-1.447,0-2.894.037-4.329-.025a1.488,1.488,0,0,1-1.067-.6,24.841,24.841,0,0,1-3.63-10.926A1.454,1.454,0,0,1,8,33.238q3.366-2.373,6.671-4.844a1.45,1.45,0,0,1,1.545-.245c1.729.6,3.47,1.165,5.224,1.7a1.563,1.563,0,0,1,1.189,1.153c.883,2.857,1.864,5.69,2.722,8.547a2.033,2.033,0,0,1-.221,1.508C24.1,42.619,23,44.127,21.844,45.6a2,2,0,0,1-1.263.662ZM41.893,48.1c-.822,2.7-1.729,5.359-2.575,8.044a1.253,1.253,0,0,1-1.055.981,25.16,25.16,0,0,1-11.625-.061,1.451,1.451,0,0,1-.9-.822c-.944-2.722-1.827-5.469-2.673-8.228a1.639,1.639,0,0,1,.221-1.238c1.091-1.594,2.232-3.176,3.421-4.7a1.876,1.876,0,0,1,1.189-.613c1.545-.074,3.1-.025,4.647-.025s3.029-.049,4.549.025a1.8,1.8,0,0,1,1.189.6q1.784,2.3,3.421,4.7a1.727,1.727,0,0,1,.184,1.324ZM53.91,45.819a.734.734,0,0,1-.086.074,2.536,2.536,0,0,1-1.337.417h-.343l-6.266.074h-.159l-.858-.037a3.143,3.143,0,0,1-1.177-.294c-1.288-.638-1.9-2.551-2.98-3.752a3.569,3.569,0,0,1-.674-4.181c.944-2.342,1.582-4.819,2.416-7.2a1.878,1.878,0,0,1,1.006-1.006c1.778-.662,3.593-1.251,5.408-1.778a1.779,1.779,0,0,1,1.324.2c2.305,1.619,4.6,3.274,6.842,4.979a1.7,1.7,0,0,1,.613,1.275,23.831,23.831,0,0,1-3.581,11.036.784.784,0,0,1-.159.184Z" transform="translate(-5.399 -5.389)" fill="#fff"/>
</svg>
