<svg xmlns="http://www.w3.org/2000/svg" width="57.058" height="39.209" viewBox="0 0 57.058 39.209">
  <path id="Trazado_678" data-name="Trazado 678" d="M61.938,23.491l-.025-.24-.505-1.2c-.088-.253-.177-.493-.265-.733a26.867,26.867,0,0,0-2-4.725l.632.126-.139-.9a2.027,2.027,0,0,0-1.327-1.579l.126-1.4c.013-.556-.152-.9-.531-1.023a.709.709,0,0,0-.581.063.823.823,0,0,0-.4-.72.742.742,0,0,0-.758.025l-.139.114a9.973,9.973,0,0,0-1.112,1.44.846.846,0,0,1-.265.025h-.379a11.086,11.086,0,0,0-2.653.227,13.6,13.6,0,0,0-6.962,4.6,6.187,6.187,0,0,1-2.135,1.541,33.053,33.053,0,0,1-12.167,2.641c-1.2.051-2.426.038-3.626.025-.96,0-1.933-.013-2.893,0a9.474,9.474,0,0,0-5.42,1.579.742.742,0,0,1-.24.025c-.316.013-.644.013-.96.025a13.15,13.15,0,0,0-1.857.088c-5.724.733-9.59,5.041-10.335,11.51L4.88,36.189l1.238-.619a4.616,4.616,0,0,0,.43-.227,31.474,31.474,0,0,0,5.635-4.195,9.119,9.119,0,0,0,2.224-2.957,5.76,5.76,0,0,1,.619-1.036,2.632,2.632,0,0,1,.594-.594c-.9,3.146-.758,3.98.745,7.909-.2.114-.392.227-.594.341-.809.455-1.643.935-2.476,1.314a2.948,2.948,0,0,0-1.819,2.54l-.076.594c-.114.96-.227,1.92-.379,2.881a7.19,7.19,0,0,1-1.061,3.1,1.417,1.417,0,0,0-1.756,1.1,25.375,25.375,0,0,0-.518,2.514A1.424,1.424,0,0,0,8.241,50.1a1.046,1.046,0,0,0,.619.177,1.285,1.285,0,0,0,.758-.227l.366-.278a13.03,13.03,0,0,0,1.87-1.579,7.435,7.435,0,0,0,1.718-4.334,5.092,5.092,0,0,1,2.186-3.993,5.767,5.767,0,0,1,1.087-.505c.291-.114.594-.24.872-.379.657-.329,1.314-.682,1.958-1.023l1.162-.619a.18.18,0,0,0,.051-.025,12.292,12.292,0,0,1-.644,2.161,2.742,2.742,0,0,0,1.226,3.854c.821.505,1.63,1.036,2.426,1.567.758.518,1.516,1.049,2.274,1.567l.72.505a2.278,2.278,0,0,0-.1.265,1.26,1.26,0,0,0,.67,1.668c.581.253,1.175.48,1.781.72l1.478.581.114-.783a4.576,4.576,0,0,0-1.794-4.523c-1.516-1.213-3.032-2.426-4.574-3.614a.458.458,0,0,1-.227-.505A10.09,10.09,0,0,1,25.26,37.4c.19-.442.379-.872.543-1.327a2.52,2.52,0,0,1,.316-.48c.505-.67.847-.733,1.617-.329A16.164,16.164,0,0,0,30,36.277a19.148,19.148,0,0,0,8.048.733c.771-.063,1.529-.177,2.312-.291l.518-.076a1.528,1.528,0,0,1,.063.227,7.436,7.436,0,0,1-3.007,7.871,8,8,0,0,1-1.39.733l-.051.025a1.279,1.279,0,0,0-1.693-.2,5.476,5.476,0,0,0-1.958,2.514,1.017,1.017,0,0,0,.088,1.074,1.115,1.115,0,0,0,1.1.366,6.914,6.914,0,0,0,1.15-.3c.227-.076.455-.177.682-.265a4.224,4.224,0,0,1,1.023-.341,5.794,5.794,0,0,0,3.74-2.148c.265-.291.518-.606.758-.922.278-.354.556-.695.859-1.023A10.481,10.481,0,0,0,45.1,38.8c.063-.379.139-.455.139-.455a.959.959,0,0,1,.4,0,14.522,14.522,0,0,1,2.931.657,4.2,4.2,0,0,1,1.541,1.036,7.21,7.21,0,0,1,1.6,3.336c.177.657.341,1.327.518,2.009l.126.493a1.521,1.521,0,0,0-.644,1.049,2.145,2.145,0,0,0,.935,1.643l1.226,1.087A1.228,1.228,0,0,0,55,49.973a1.072,1.072,0,0,0,.733-.771,3.475,3.475,0,0,0,.126-1.63l-.038-.2c-.291-1.579-.594-3.2-1.023-4.776a10.918,10.918,0,0,0-4.65-6.873,3.333,3.333,0,0,1-1.617-2.363,14.965,14.965,0,0,1-.114-1.554c0-.4-.025-.809-.063-1.213A3.389,3.389,0,0,1,49.4,27.749a25.128,25.128,0,0,0,2.148-2.413c.48-.632.91-1.3,1.314-1.958.227-.366.467-.733.708-1.1.164-.24.341-.392.48-.4.164-.038.366.152.467.253a6.953,6.953,0,0,1,.91,1.2l.291.442c.152.227.3.455.442.695a14.267,14.267,0,0,0,.809,1.2,2.268,2.268,0,0,0,2.337.771,3.213,3.213,0,0,0,2.565-2.325,2.413,2.413,0,0,0,.051-.657h0Zm-1.478.771a1.937,1.937,0,0,1-1.4.973.958.958,0,0,1-1.087-.316,12.244,12.244,0,0,1-.72-1.074c-.152-.253-.3-.493-.467-.733l-.278-.417a8.705,8.705,0,0,0-1.074-1.415,1.8,1.8,0,0,0-1.478-.606,1.968,1.968,0,0,0-1.4.96c-.253.366-.493.745-.733,1.124-.4.632-.809,1.276-1.263,1.87a25.634,25.634,0,0,1-2.034,2.3,4.6,4.6,0,0,0-1.4,3.841c.038.379.051.758.051,1.137a11.474,11.474,0,0,0,.126,1.718,4.656,4.656,0,0,0,2.211,3.234c2.022,1.226,3.285,3.108,4.094,6.115.417,1.529.708,3.133,1,4.687l.038.2a2.171,2.171,0,0,1-.038.8l-1.1-.973a2.41,2.41,0,0,1-.518-.569c0-.013.076-.139.442-.366l.392-.24-.341-1.365c-.177-.682-.341-1.365-.518-2.034a8.3,8.3,0,0,0-1.933-3.9,5.768,5.768,0,0,0-2.009-1.339,16.149,16.149,0,0,0-3.184-.72,1.545,1.545,0,0,0-1.958,1.478,9.076,9.076,0,0,1-2.514,4.789c-.341.354-.644.733-.948,1.112-.227.291-.455.581-.708.859a4.506,4.506,0,0,1-2.944,1.744,4.686,4.686,0,0,0-1.39.43c-.19.088-.392.164-.581.24a5.575,5.575,0,0,1-.594.177,3.724,3.724,0,0,1,1.3-1.579l.139.051a1.127,1.127,0,0,0,1.226.316l.215-.1a8.566,8.566,0,0,0,1.6-.859,8.7,8.7,0,0,0,3.5-9.211,5,5,0,0,0-.19-.569l-.253-.733-1.554.215c-.758.114-1.491.215-2.236.278a17.726,17.726,0,0,1-7.53-.67,16.416,16.416,0,0,1-2.085-.935,2.272,2.272,0,0,0-3.234.72,2.968,2.968,0,0,0-.467.758c-.164.43-.341.847-.518,1.263a11.6,11.6,0,0,0-1.124,3.79,1.7,1.7,0,0,0,.72,1.592c1.541,1.175,3.045,2.388,4.561,3.6a3.257,3.257,0,0,1,1.377,2.54,11.5,11.5,0,0,1-1.655-.758c.051-.139.114-.265.164-.417l.19-.733-.354-.3c-.076-.063-.152-.126-.24-.19L26.9,45.45c-.758-.531-1.516-1.061-2.287-1.579-.821-.556-1.643-1.1-2.489-1.6a1.523,1.523,0,0,1-.708-2.287,14.886,14.886,0,0,0,.745-2.54,1.4,1.4,0,0,0-.253-1,1.109,1.109,0,0,0-.973-.467l-.24.063a2.741,2.741,0,0,0-.442.19l-1.175.619c-.644.341-1.289.682-1.933,1.011a8.3,8.3,0,0,1-.771.328,7.648,7.648,0,0,0-1.3.619,6.3,6.3,0,0,0-2.754,4.9,6.331,6.331,0,0,1-1.377,3.626A12,12,0,0,1,9.239,48.76l-.291.19a21.043,21.043,0,0,1,.48-2.287,1.4,1.4,0,0,1,.051-.164,1.048,1.048,0,0,1,.329,0,1.345,1.345,0,0,0,1.15-.48,8.268,8.268,0,0,0,1.314-3.664c.164-.973.278-1.958.392-2.931l.076-.594a1.717,1.717,0,0,1,1.087-1.541c.9-.4,1.756-.9,2.59-1.365.215-.126.43-.24.657-.366h0a1.255,1.255,0,0,0,.556-.922,1.239,1.239,0,0,0-.088-.67.268.268,0,0,0-.038-.088v-.013h0c-1.491-3.891-1.453-4.258-.341-8l.227-.758-.8-.051a2.948,2.948,0,0,0-2.54,1.339,6.326,6.326,0,0,0-.771,1.289,8.281,8.281,0,0,1-1.92,2.552,31.482,31.482,0,0,1-4.89,3.715c.986-5.168,4.308-8.554,9.046-9.16a12.563,12.563,0,0,1,1.706-.076c.329,0,.67,0,1-.025a1.546,1.546,0,0,0,.9-.253,7.946,7.946,0,0,1,4.725-1.352c.948-.025,1.9-.013,2.855,0,1.213,0,2.451.025,3.689-.038a33.995,33.995,0,0,0,12.635-2.754,7.327,7.327,0,0,0,2.565-1.857,12.356,12.356,0,0,1,6.317-4.207,10.357,10.357,0,0,1,2.363-.19h.392A1.418,1.418,0,0,0,56,13.4l-.025.455V13.9a.754.754,0,0,0,.467.644l.48.088.114-.114a.991.991,0,0,0,.594.821c.088.038.164.076.24.1a.736.736,0,0,0-.139.19,1.185,1.185,0,0,0,.025,1.124,21.8,21.8,0,0,1,2.186,4.978c.164.48.341.973.518,1.453h0a1.533,1.533,0,0,1,0,1.087Z" transform="translate(-4.88 -11.067)" fill="#fff"/>
</svg>
