<svg id="icon-virtual-01" xmlns="http://www.w3.org/2000/svg" width="45.05" height="65.404" viewBox="0 0 45.05 65.404">
  <path id="phone" d="M5169.481,671.808a4.55,4.55,0,0,1-4.473-4.782v-55.84a4.649,4.649,0,0,1,4.473-4.782h36.1a4.649,4.649,0,0,1,4.473,4.782v55.84a4.649,4.649,0,0,1-4.473,4.782Zm-2.93-60.622h.154v55.84a2.941,2.941,0,0,0,2.776,3.086h35.942a2.941,2.941,0,0,0,2.776-3.086v-55.84a2.94,2.94,0,0,0-2.776-3.084h-36.1A2.94,2.94,0,0,0,5166.551,611.186Zm18.047,57.846v-6.016h6.016v6.016Zm1.7-1.543h2.622v-2.622H5186.3Zm-17.277-5.4-.154-.926V612.729l.154-.771h37.022l.153.926v48.436l-.153.771Zm1.389-1.852h34.09V613.654h-34.09Zm13.882-49.361v-1.7h6.479v1.7Z" transform="translate(-5165 -606.404)" fill="#fff"/>
</svg>
