<svg xmlns="http://www.w3.org/2000/svg" width="200" height="58.868" viewBox="0 0 200 58.868">
  <g id="Grupo_637" data-name="Grupo 637" transform="translate(-25.459 -94.589)">
    <g id="Grupo_621" data-name="Grupo 621" transform="translate(25.459 94.589)">
      <rect id="Rectángulo_298" data-name="Rectángulo 298" width="198.516" height="57.383" rx="7.382" transform="translate(0.742 0.743)" fill="#e5e5e5"/>
      <path id="Trazado_611" data-name="Trazado 611" d="M217.932,153.457H32.986a7.536,7.536,0,0,1-7.527-7.527V102.116a7.536,7.536,0,0,1,7.527-7.527H217.932a7.536,7.536,0,0,1,7.527,7.527V145.93A7.536,7.536,0,0,1,217.932,153.457ZM32.986,96.073a6.05,6.05,0,0,0-6.043,6.043V145.93a6.049,6.049,0,0,0,6.043,6.042H217.932a6.049,6.049,0,0,0,6.043-6.042V102.116a6.05,6.05,0,0,0-6.043-6.043Z" transform="translate(-25.459 -94.589)" fill="#96999c"/>
    </g>
    <g id="Grupo_623" data-name="Grupo 623" transform="translate(40.373 116.906)">
      <path id="Trazado_624" data-name="Trazado 624" d="M19.935.531l3.309,5.755C17.22,9.241,13.137,15.026,13.137,21.664H51.684c0-6.638-4.083-12.423-10.108-15.378L44.886.531a.355.355,0,0,0-.139-.477.375.375,0,0,0-.5.121L40.889,5.98a21.061,21.061,0,0,0-16.956,0L20.572.175a.36.36,0,0,0-.486-.121.361.361,0,0,0-.151.477Zm3.309,11.146a1.836,1.836,0,0,1,1.833,1.833,1.833,1.833,0,0,1-3.666,0A1.837,1.837,0,0,1,23.245,11.677Zm18.332,0A1.836,1.836,0,0,1,43.41,13.51a1.833,1.833,0,0,1-3.666,0A1.837,1.837,0,0,1,41.576,11.677Z" transform="translate(-13.137 0)" fill="#a4c639"/>
    </g>
    <text id="DESCARGAR_APP" data-name="DESCARGAR APP" transform="translate(132.682 117.698)" fill="#2d2d2d" font-size="12" font-family="Heebo-Medium, Heebo" font-weight="500"><tspan x="-47.646" y="0">DESCARGAR APP</tspan></text>
    <text id="ANDROID_APK" data-name="ANDROID APK" transform="translate(141.682 137.403)" fill="#2d2d2d" font-size="17" font-family="Heebo-ExtraBold, Heebo" font-weight="800"><tspan x="-55.458" y="0">ANDROID APK</tspan></text>
  </g>
</svg>
