<svg xmlns="http://www.w3.org/2000/svg" width="69.456" height="56.64" viewBox="0 0 69.456 56.64">
  <path id="icon-registrate" d="M43.245,23.48A13.66,13.66,0,1,1,29.585,9.82,13.664,13.664,0,0,1,43.245,23.48ZM5.68,61.292A19.036,19.036,0,0,1,24.717,42.255h9.751A19.036,19.036,0,0,1,53.505,61.292a3.172,3.172,0,0,1-3.168,3.168H8.848A3.172,3.172,0,0,1,5.68,61.292ZM72.388,28.7l-13.66,13.66a2.546,2.546,0,0,1-3.616,0l-6.83-6.83A2.557,2.557,0,1,1,51.9,31.917l5.022,5.022L68.773,25.087A2.557,2.557,0,1,1,72.388,28.7h0Z" transform="translate(-4.68 -8.82)" fill="none" stroke="#fff" stroke-width="2"/>
</svg>
