<svg xmlns="http://www.w3.org/2000/svg" width="64" height="43.177" viewBox="0 0 64 43.177">
  <g id="icon-casino-01" transform="translate(-52.8 -16.023)">
    <path id="Unión_6" data-name="Unión 6" d="M5506.431,643.377a3.759,3.759,0,0,1-3.631-3.631V603.831a3.759,3.759,0,0,1,3.631-3.631h56.548a3.793,3.793,0,0,1,3.821,3.631v35.914a3.758,3.758,0,0,1-3.628,3.631Zm3.629-7.26h49.481V607.46H5510.06Zm31.523-3.249V610.709h1.911v22.159Zm-16.621,0V610.709h1.911v22.159Zm22.735-6.113a3.67,3.67,0,0,1,.764-2.673,7.138,7.138,0,0,1,3.628-2.867,4.34,4.34,0,0,1-2.075-.058,4.578,4.578,0,0,0-1.553-.133,2.06,2.06,0,0,0-1.338,1.147h-1.146V618.16h1.338v.379a6.71,6.71,0,0,1,5.348-.379,3.374,3.374,0,0,0,3.058-.191l.957.762a11.863,11.863,0,0,0-3.249,8.024Zm-16.622,0a3.67,3.67,0,0,1,.764-2.673,7.14,7.14,0,0,1,3.63-2.867,4.34,4.34,0,0,1-2.075-.058,4.588,4.588,0,0,0-1.555-.133,1.636,1.636,0,0,0-1.147,1.147h-1.335V618.16h1.335v.379a6.719,6.719,0,0,1,5.352-.379,3.369,3.369,0,0,0,3.055-.191l.956.762a11.863,11.863,0,0,0-3.249,8.024Zm-16.237,0a3.675,3.675,0,0,1,.763-2.673,7.127,7.127,0,0,1,3.629-2.867,4.34,4.34,0,0,1-2.075-.058,4.581,4.581,0,0,0-1.554-.133c-.763.191-1.337.956-1.146,1.147h-1.337V618.16h1.337v.379a6.712,6.712,0,0,1,5.349-.379,3.371,3.371,0,0,0,3.056-.191l.955.762a11.871,11.871,0,0,0-3.246,8.024Z" transform="translate(-5450 -584.177)" fill="#fff"/>
  </g>
</svg>
